<?xml version="1.0" encoding="UTF-8"?>
<svg xmlns="http://www.w3.org/2000/svg" width="220" height="465" viewBox="0 0 220 465">
  <rect x="0" y="0" width="100%" height="100%" fill="#f4f4f4"/>
  <text x="10" y="22" font-family="system-ui,sans-serif" font-size="13" font-weight="bold">거래명세서출력자료</text>
  <text x="10" y="38" font-family="system-ui,sans-serif" font-size="10" fill="#444">Seak07 | Seak70 | TSeak70</text>
  <g transform="translate(10 36)">
    <rect x="0" y="0" width="200.0" height="413.0" fill="#fff" stroke="#333" stroke-width="1"/>
    <rect x="9.0" y="6.0" width="68.0" height="16.0" fill="#cfe8fc" stroke="#666" stroke-width="0.6" opacity="0.95"/>
    <text x="12.0" y="17.0" font-family="system-ui,sans-serif" font-size="9" fill="#222">거래처명</text>
    <rect x="196.0" y="6.0" width="4.0" height="16.0" fill="#e8f5e9" stroke="#666" stroke-width="0.6" opacity="0.95"/>
    <rect x="484.0" y="6.0" width="1.0" height="16.0" fill="#fff3e0" stroke="#666" stroke-width="0.6" opacity="0.95"/>
    <rect x="564.0" y="6.0" width="1.0" height="16.0" fill="#f3e5f5" stroke="#666" stroke-width="0.6" opacity="0.95"/>
    <rect x="8.0" y="24.0" width="177.0" height="289.0" fill="#eceff1" stroke="#666" stroke-width="0.6" opacity="0.95"/>
    <text x="11.0" y="35.0" font-family="system-ui,sans-serif" font-size="9" fill="#222">TFlatPanel</text>
    <rect x="9.0" y="25.0" width="146.0" height="287.0" fill="#d7ccc8" stroke="#666" stroke-width="0.6" opacity="0.95"/>
    <text x="12.0" y="36.0" font-family="system-ui,sans-serif" font-size="9" fill="#222">TDBGrid</text>
    <rect x="192.0" y="24.0" width="8.0" height="289.0" fill="#cfe8fc" stroke="#666" stroke-width="0.6" opacity="0.95"/>
    <rect x="193.0" y="25.0" width="7.0" height="287.0" fill="#e8f5e9" stroke="#666" stroke-width="0.6" opacity="0.95"/>
    <rect x="8.0" y="320.0" width="192.0" height="49.0" fill="#fff3e0" stroke="#666" stroke-width="0.6" opacity="0.95"/>
    <text x="11.0" y="331.0" font-family="system-ui,sans-serif" font-size="9" fill="#222">TFlatPanel</text>
    <rect x="31.0" y="331.0" width="75.0" height="30.0" fill="#f3e5f5" stroke="#666" stroke-width="0.6" opacity="0.95"/>
    <text x="34.0" y="342.0" font-family="system-ui,sans-serif" font-size="9" fill="#222">추가</text>
    <text x="34.0" y="353.0" font-family="system-ui,sans-serif" font-size="7" fill="#666">TBitBtn</text>
    <rect x="135.0" y="331.0" width="65.0" height="30.0" fill="#eceff1" stroke="#666" stroke-width="0.6" opacity="0.95"/>
    <text x="138.0" y="342.0" font-family="system-ui,sans-serif" font-size="9" fill="#222">취소</text>
    <text x="138.0" y="353.0" font-family="system-ui,sans-serif" font-size="7" fill="#666">TBitBtn</text>
    <rect x="239.0" y="331.0" width="1.0" height="30.0" fill="#d7ccc8" stroke="#666" stroke-width="0.6" opacity="0.95"/>
    <rect x="343.0" y="331.0" width="1.0" height="30.0" fill="#cfe8fc" stroke="#666" stroke-width="0.6" opacity="0.95"/>
    <rect x="447.0" y="331.0" width="1.0" height="30.0" fill="#e8f5e9" stroke="#666" stroke-width="0.6" opacity="0.95"/>
    <rect x="559.0" y="331.0" width="1.0" height="30.0" fill="#fff3e0" stroke="#666" stroke-width="0.6" opacity="0.95"/>
  </g>
</svg>