<?xml version="1.0" encoding="UTF-8"?>
<svg xmlns="http://www.w3.org/2000/svg" width="438" height="373" viewBox="0 0 438 373">
  <rect x="0" y="0" width="100%" height="100%" fill="#f4f4f4"/>
  <text x="10" y="22" font-family="system-ui,sans-serif" font-size="13" font-weight="bold">자료정렬</text>
  <text x="10" y="38" font-family="system-ui,sans-serif" font-size="10" fill="#444">Seak03 | Seak30 | TSeak30</text>
  <g transform="translate(10 36)">
    <rect x="0" y="0" width="418.0" height="321.0" fill="#fff" stroke="#333" stroke-width="1"/>
    <rect x="8.0" y="8.0" width="401.0" height="273.0" fill="#cfe8fc" stroke="#666" stroke-width="0.6" opacity="0.95"/>
    <text x="11.0" y="19.0" font-family="system-ui,sans-serif" font-size="9" fill="#222">TFlatPanel</text>
    <rect x="24.0" y="16.0" width="369.0" height="57.0" fill="#e8f5e9" stroke="#666" stroke-width="0.6" opacity="0.95"/>
    <text x="27.0" y="27.0" font-family="system-ui,sans-serif" font-size="9" fill="#222">제1정렬</text>
    <text x="27.0" y="38.0" font-family="system-ui,sans-serif" font-size="7" fill="#666">TFlatGroupBox</text>
    <rect x="194.0" y="40.0" width="54.0" height="15.0" fill="#fff3e0" stroke="#666" stroke-width="0.6" opacity="0.95"/>
    <text x="197.0" y="51.0" font-family="system-ui,sans-serif" font-size="9" fill="#222">조건식:</text>
    <rect x="248.0" y="36.0" width="129.0" height="23.0" fill="#f3e5f5" stroke="#666" stroke-width="0.6" opacity="0.95"/>
    <text x="251.0" y="47.0" font-family="system-ui,sans-serif" font-size="9" fill="#222">오름차순</text>
    <rect x="248.0" y="36.0" width="129.0" height="23.0" fill="#eceff1" stroke="#666" stroke-width="0.6" opacity="0.95"/>
    <text x="251.0" y="47.0" font-family="system-ui,sans-serif" font-size="9" fill="#222">TFlatComboBox</text>
    <rect x="40.0" y="36.0" width="129.0" height="23.0" fill="#d7ccc8" stroke="#666" stroke-width="0.6" opacity="0.95"/>
    <text x="43.0" y="47.0" font-family="system-ui,sans-serif" font-size="9" fill="#222">TFlatComboBox</text>
    <rect x="40.0" y="36.0" width="129.0" height="23.0" fill="#cfe8fc" stroke="#666" stroke-width="0.6" opacity="0.95"/>
    <text x="43.0" y="47.0" font-family="system-ui,sans-serif" font-size="9" fill="#222">TFlatComboBox</text>
    <rect x="24.0" y="80.0" width="369.0" height="57.0" fill="#e8f5e9" stroke="#666" stroke-width="0.6" opacity="0.95"/>
    <text x="27.0" y="91.0" font-family="system-ui,sans-serif" font-size="9" fill="#222">제2정렬</text>
    <text x="27.0" y="102.0" font-family="system-ui,sans-serif" font-size="7" fill="#666">TFlatGroupBox</text>
    <rect x="194.0" y="104.0" width="54.0" height="15.0" fill="#fff3e0" stroke="#666" stroke-width="0.6" opacity="0.95"/>
    <text x="197.0" y="115.0" font-family="system-ui,sans-serif" font-size="9" fill="#222">조건식:</text>
    <rect x="248.0" y="100.0" width="129.0" height="23.0" fill="#f3e5f5" stroke="#666" stroke-width="0.6" opacity="0.95"/>
    <text x="251.0" y="111.0" font-family="system-ui,sans-serif" font-size="9" fill="#222">오름차순</text>
    <rect x="248.0" y="100.0" width="129.0" height="23.0" fill="#eceff1" stroke="#666" stroke-width="0.6" opacity="0.95"/>
    <text x="251.0" y="111.0" font-family="system-ui,sans-serif" font-size="9" fill="#222">TFlatComboBox</text>
    <rect x="40.0" y="100.0" width="129.0" height="23.0" fill="#d7ccc8" stroke="#666" stroke-width="0.6" opacity="0.95"/>
    <text x="43.0" y="111.0" font-family="system-ui,sans-serif" font-size="9" fill="#222">TFlatComboBox</text>
    <rect x="40.0" y="100.0" width="129.0" height="23.0" fill="#cfe8fc" stroke="#666" stroke-width="0.6" opacity="0.95"/>
    <text x="43.0" y="111.0" font-family="system-ui,sans-serif" font-size="9" fill="#222">TFlatComboBox</text>
    <rect x="24.0" y="144.0" width="369.0" height="57.0" fill="#e8f5e9" stroke="#666" stroke-width="0.6" opacity="0.95"/>
    <text x="27.0" y="155.0" font-family="system-ui,sans-serif" font-size="9" fill="#222">제3정렬</text>
    <text x="27.0" y="166.0" font-family="system-ui,sans-serif" font-size="7" fill="#666">TFlatGroupBox</text>
    <rect x="194.0" y="168.0" width="54.0" height="15.0" fill="#fff3e0" stroke="#666" stroke-width="0.6" opacity="0.95"/>
    <text x="197.0" y="179.0" font-family="system-ui,sans-serif" font-size="9" fill="#222">조건식:</text>
    <rect x="248.0" y="164.0" width="129.0" height="23.0" fill="#f3e5f5" stroke="#666" stroke-width="0.6" opacity="0.95"/>
    <text x="251.0" y="175.0" font-family="system-ui,sans-serif" font-size="9" fill="#222">오름차순</text>
    <rect x="248.0" y="164.0" width="129.0" height="23.0" fill="#eceff1" stroke="#666" stroke-width="0.6" opacity="0.95"/>
    <text x="251.0" y="175.0" font-family="system-ui,sans-serif" font-size="9" fill="#222">TFlatComboBox</text>
    <rect x="40.0" y="164.0" width="129.0" height="23.0" fill="#d7ccc8" stroke="#666" stroke-width="0.6" opacity="0.95"/>
    <text x="43.0" y="175.0" font-family="system-ui,sans-serif" font-size="9" fill="#222">TFlatComboBox</text>
    <rect x="40.0" y="164.0" width="129.0" height="23.0" fill="#cfe8fc" stroke="#666" stroke-width="0.6" opacity="0.95"/>
    <text x="43.0" y="175.0" font-family="system-ui,sans-serif" font-size="9" fill="#222">TFlatComboBox</text>
    <rect x="24.0" y="208.0" width="369.0" height="57.0" fill="#e8f5e9" stroke="#666" stroke-width="0.6" opacity="0.95"/>
    <text x="27.0" y="219.0" font-family="system-ui,sans-serif" font-size="9" fill="#222">제4정렬</text>
    <text x="27.0" y="230.0" font-family="system-ui,sans-serif" font-size="7" fill="#666">TFlatGroupBox</text>
    <rect x="194.0" y="232.0" width="54.0" height="15.0" fill="#fff3e0" stroke="#666" stroke-width="0.6" opacity="0.95"/>
    <text x="197.0" y="243.0" font-family="system-ui,sans-serif" font-size="9" fill="#222">조건식:</text>
    <rect x="248.0" y="228.0" width="129.0" height="23.0" fill="#f3e5f5" stroke="#666" stroke-width="0.6" opacity="0.95"/>
    <text x="251.0" y="239.0" font-family="system-ui,sans-serif" font-size="9" fill="#222">오름차순</text>
    <rect x="248.0" y="228.0" width="129.0" height="23.0" fill="#eceff1" stroke="#666" stroke-width="0.6" opacity="0.95"/>
    <text x="251.0" y="239.0" font-family="system-ui,sans-serif" font-size="9" fill="#222">TFlatComboBox</text>
    <rect x="40.0" y="228.0" width="129.0" height="23.0" fill="#d7ccc8" stroke="#666" stroke-width="0.6" opacity="0.95"/>
    <text x="43.0" y="239.0" font-family="system-ui,sans-serif" font-size="9" fill="#222">TFlatComboBox</text>
    <rect x="40.0" y="228.0" width="129.0" height="23.0" fill="#cfe8fc" stroke="#666" stroke-width="0.6" opacity="0.95"/>
    <text x="43.0" y="239.0" font-family="system-ui,sans-serif" font-size="9" fill="#222">TFlatComboBox</text>
    <rect x="88.0" y="288.0" width="105.0" height="25.0" fill="#e8f5e9" stroke="#666" stroke-width="0.6" opacity="0.95"/>
    <text x="91.0" y="299.0" font-family="system-ui,sans-serif" font-size="9" fill="#222">선택</text>
    <rect x="232.0" y="288.0" width="105.0" height="25.0" fill="#fff3e0" stroke="#666" stroke-width="0.6" opacity="0.95"/>
    <text x="235.0" y="299.0" font-family="system-ui,sans-serif" font-size="9" fill="#222">취소</text>
    <rect x="104.0" y="288.0" width="75.0" height="25.0" fill="#f3e5f5" stroke="#666" stroke-width="0.6" opacity="0.95"/>
    <text x="107.0" y="299.0" font-family="system-ui,sans-serif" font-size="9" fill="#222">정렬</text>
    <rect x="248.0" y="288.0" width="75.0" height="25.0" fill="#eceff1" stroke="#666" stroke-width="0.6" opacity="0.95"/>
    <text x="251.0" y="299.0" font-family="system-ui,sans-serif" font-size="9" fill="#222">취소</text>
  </g>
</svg>