<?xml version="1.0" encoding="UTF-8"?>
<svg xmlns="http://www.w3.org/2000/svg" width="606" height="585" viewBox="0 0 606 585">
  <rect x="0" y="0" width="100%" height="100%" fill="#f4f4f4"/>
  <text x="10" y="22" font-family="system-ui,sans-serif" font-size="13" font-weight="bold">출력셋팅</text>
  <text x="10" y="38" font-family="system-ui,sans-serif" font-size="10" fill="#444">Seak06 | Seak60 | TSeak60</text>
  <g transform="translate(10 36)">
    <rect x="0" y="0" width="586.0" height="533.0" fill="#fff" stroke="#333" stroke-width="1"/>
    <rect x="0.0" y="0.0" width="586.0" height="533.0" fill="#cfe8fc" stroke="#666" stroke-width="0.6" opacity="0.95"/>
    <text x="3.0" y="11.0" font-family="system-ui,sans-serif" font-size="9" fill="#222">TPageControl</text>
    <rect x="8.0" y="8.0" width="561.0" height="81.0" fill="#e8f5e9" stroke="#666" stroke-width="0.6" opacity="0.95"/>
    <text x="11.0" y="19.0" font-family="system-ui,sans-serif" font-size="9" fill="#222">용지여백</text>
    <text x="11.0" y="30.0" font-family="system-ui,sans-serif" font-size="7" fill="#666">TFlatGroupBox</text>
    <rect x="24.0" y="33.0" width="52.0" height="12.0" fill="#fff3e0" stroke="#666" stroke-width="0.6" opacity="0.95"/>
    <rect x="24.0" y="60.0" width="52.0" height="12.0" fill="#f3e5f5" stroke="#666" stroke-width="0.6" opacity="0.95"/>
    <rect x="168.0" y="33.0" width="52.0" height="12.0" fill="#eceff1" stroke="#666" stroke-width="0.6" opacity="0.95"/>
    <rect x="168.0" y="60.0" width="52.0" height="12.0" fill="#d7ccc8" stroke="#666" stroke-width="0.6" opacity="0.95"/>
    <rect x="376.0" y="32.0" width="73.0" height="41.0" fill="#cfe8fc" stroke="#666" stroke-width="0.6" opacity="0.95"/>
    <text x="379.0" y="43.0" font-family="system-ui,sans-serif" font-size="9" fill="#222">저장</text>
    <text x="379.0" y="54.0" font-family="system-ui,sans-serif" font-size="7" fill="#666">TFlatButton</text>
    <rect x="472.0" y="32.0" width="73.0" height="41.0" fill="#e8f5e9" stroke="#666" stroke-width="0.6" opacity="0.95"/>
    <text x="475.0" y="43.0" font-family="system-ui,sans-serif" font-size="9" fill="#222">종료</text>
    <text x="475.0" y="54.0" font-family="system-ui,sans-serif" font-size="7" fill="#666">TFlatButton</text>
    <rect x="8.0" y="101.0" width="561.0" height="396.0" fill="#fff3e0" stroke="#666" stroke-width="0.6" opacity="0.95"/>
    <text x="11.0" y="112.0" font-family="system-ui,sans-serif" font-size="9" fill="#222">TFlatGroupBox</text>
    <rect x="96.0" y="121.0" width="59.0" height="12.0" fill="#f3e5f5" stroke="#666" stroke-width="0.6" opacity="0.95"/>
    <rect x="18.0" y="152.0" width="59.0" height="12.0" fill="#eceff1" stroke="#666" stroke-width="0.6" opacity="0.95"/>
    <rect x="96.0" y="185.0" width="59.0" height="12.0" fill="#d7ccc8" stroke="#666" stroke-width="0.6" opacity="0.95"/>
    <rect x="18.0" y="216.0" width="59.0" height="12.0" fill="#cfe8fc" stroke="#666" stroke-width="0.6" opacity="0.95"/>
    <rect x="96.0" y="249.0" width="59.0" height="12.0" fill="#e8f5e9" stroke="#666" stroke-width="0.6" opacity="0.95"/>
    <rect x="18.0" y="280.0" width="59.0" height="12.0" fill="#fff3e0" stroke="#666" stroke-width="0.6" opacity="0.95"/>
    <rect x="96.0" y="313.0" width="59.0" height="12.0" fill="#f3e5f5" stroke="#666" stroke-width="0.6" opacity="0.95"/>
    <rect x="18.0" y="344.0" width="59.0" height="12.0" fill="#eceff1" stroke="#666" stroke-width="0.6" opacity="0.95"/>
    <rect x="96.0" y="377.0" width="59.0" height="12.0" fill="#d7ccc8" stroke="#666" stroke-width="0.6" opacity="0.95"/>
    <rect x="18.0" y="409.0" width="59.0" height="12.0" fill="#cfe8fc" stroke="#666" stroke-width="0.6" opacity="0.95"/>
    <rect x="96.0" y="441.0" width="59.0" height="12.0" fill="#e8f5e9" stroke="#666" stroke-width="0.6" opacity="0.95"/>
    <rect x="8.0" y="8.0" width="561.0" height="81.0" fill="#fff3e0" stroke="#666" stroke-width="0.6" opacity="0.95"/>
    <text x="11.0" y="19.0" font-family="system-ui,sans-serif" font-size="9" fill="#222">용지여백</text>
    <text x="11.0" y="30.0" font-family="system-ui,sans-serif" font-size="7" fill="#666">TFlatGroupBox</text>
    <rect x="24.0" y="33.0" width="52.0" height="12.0" fill="#f3e5f5" stroke="#666" stroke-width="0.6" opacity="0.95"/>
    <rect x="24.0" y="60.0" width="52.0" height="12.0" fill="#eceff1" stroke="#666" stroke-width="0.6" opacity="0.95"/>
    <rect x="168.0" y="33.0" width="52.0" height="12.0" fill="#d7ccc8" stroke="#666" stroke-width="0.6" opacity="0.95"/>
    <rect x="168.0" y="60.0" width="52.0" height="12.0" fill="#cfe8fc" stroke="#666" stroke-width="0.6" opacity="0.95"/>
    <rect x="376.0" y="32.0" width="73.0" height="41.0" fill="#e8f5e9" stroke="#666" stroke-width="0.6" opacity="0.95"/>
    <text x="379.0" y="43.0" font-family="system-ui,sans-serif" font-size="9" fill="#222">저장</text>
    <text x="379.0" y="54.0" font-family="system-ui,sans-serif" font-size="7" fill="#666">TFlatButton</text>
    <rect x="472.0" y="32.0" width="73.0" height="41.0" fill="#fff3e0" stroke="#666" stroke-width="0.6" opacity="0.95"/>
    <text x="475.0" y="43.0" font-family="system-ui,sans-serif" font-size="9" fill="#222">종료</text>
    <text x="475.0" y="54.0" font-family="system-ui,sans-serif" font-size="7" fill="#666">TFlatButton</text>
    <rect x="8.0" y="101.0" width="561.0" height="396.0" fill="#f3e5f5" stroke="#666" stroke-width="0.6" opacity="0.95"/>
    <text x="11.0" y="112.0" font-family="system-ui,sans-serif" font-size="9" fill="#222">TFlatGroupBox</text>
    <rect x="96.0" y="121.0" width="59.0" height="12.0" fill="#eceff1" stroke="#666" stroke-width="0.6" opacity="0.95"/>
    <rect x="10.0" y="152.0" width="59.0" height="12.0" fill="#d7ccc8" stroke="#666" stroke-width="0.6" opacity="0.95"/>
    <rect x="96.0" y="185.0" width="59.0" height="12.0" fill="#cfe8fc" stroke="#666" stroke-width="0.6" opacity="0.95"/>
    <rect x="10.0" y="216.0" width="59.0" height="12.0" fill="#e8f5e9" stroke="#666" stroke-width="0.6" opacity="0.95"/>
    <rect x="96.0" y="249.0" width="59.0" height="12.0" fill="#fff3e0" stroke="#666" stroke-width="0.6" opacity="0.95"/>
    <rect x="232.0" y="249.0" width="59.0" height="12.0" fill="#f3e5f5" stroke="#666" stroke-width="0.6" opacity="0.95"/>
    <rect x="10.0" y="280.0" width="59.0" height="12.0" fill="#eceff1" stroke="#666" stroke-width="0.6" opacity="0.95"/>
    <rect x="96.0" y="313.0" width="59.0" height="12.0" fill="#d7ccc8" stroke="#666" stroke-width="0.6" opacity="0.95"/>
    <rect x="10.0" y="344.0" width="59.0" height="12.0" fill="#cfe8fc" stroke="#666" stroke-width="0.6" opacity="0.95"/>
    <rect x="96.0" y="377.0" width="59.0" height="12.0" fill="#e8f5e9" stroke="#666" stroke-width="0.6" opacity="0.95"/>
    <rect x="10.0" y="409.0" width="59.0" height="12.0" fill="#fff3e0" stroke="#666" stroke-width="0.6" opacity="0.95"/>
    <rect x="96.0" y="441.0" width="59.0" height="12.0" fill="#f3e5f5" stroke="#666" stroke-width="0.6" opacity="0.95"/>
    <rect x="8.0" y="8.0" width="561.0" height="81.0" fill="#eceff1" stroke="#666" stroke-width="0.6" opacity="0.95"/>
    <text x="11.0" y="19.0" font-family="system-ui,sans-serif" font-size="9" fill="#222">용지여백</text>
    <text x="11.0" y="30.0" font-family="system-ui,sans-serif" font-size="7" fill="#666">TFlatGroupBox</text>
    <rect x="24.0" y="33.0" width="52.0" height="12.0" fill="#d7ccc8" stroke="#666" stroke-width="0.6" opacity="0.95"/>
    <rect x="24.0" y="60.0" width="52.0" height="12.0" fill="#cfe8fc" stroke="#666" stroke-width="0.6" opacity="0.95"/>
    <rect x="168.0" y="33.0" width="52.0" height="12.0" fill="#e8f5e9" stroke="#666" stroke-width="0.6" opacity="0.95"/>
    <rect x="168.0" y="60.0" width="52.0" height="12.0" fill="#fff3e0" stroke="#666" stroke-width="0.6" opacity="0.95"/>
    <rect x="376.0" y="32.0" width="73.0" height="41.0" fill="#f3e5f5" stroke="#666" stroke-width="0.6" opacity="0.95"/>
    <text x="379.0" y="43.0" font-family="system-ui,sans-serif" font-size="9" fill="#222">저장</text>
    <text x="379.0" y="54.0" font-family="system-ui,sans-serif" font-size="7" fill="#666">TFlatButton</text>
    <rect x="472.0" y="32.0" width="73.0" height="41.0" fill="#eceff1" stroke="#666" stroke-width="0.6" opacity="0.95"/>
    <text x="475.0" y="43.0" font-family="system-ui,sans-serif" font-size="9" fill="#222">종료</text>
    <text x="475.0" y="54.0" font-family="system-ui,sans-serif" font-size="7" fill="#666">TFlatButton</text>
    <rect x="8.0" y="101.0" width="561.0" height="396.0" fill="#d7ccc8" stroke="#666" stroke-width="0.6" opacity="0.95"/>
    <text x="11.0" y="112.0" font-family="system-ui,sans-serif" font-size="9" fill="#222">TFlatGroupBox</text>
    <rect x="96.0" y="121.0" width="59.0" height="12.0" fill="#cfe8fc" stroke="#666" stroke-width="0.6" opacity="0.95"/>
    <rect x="18.0" y="152.0" width="59.0" height="12.0" fill="#e8f5e9" stroke="#666" stroke-width="0.6" opacity="0.95"/>
    <rect x="96.0" y="185.0" width="59.0" height="12.0" fill="#fff3e0" stroke="#666" stroke-width="0.6" opacity="0.95"/>
    <rect x="18.0" y="216.0" width="59.0" height="12.0" fill="#f3e5f5" stroke="#666" stroke-width="0.6" opacity="0.95"/>
    <rect x="96.0" y="249.0" width="59.0" height="12.0" fill="#eceff1" stroke="#666" stroke-width="0.6" opacity="0.95"/>
    <rect x="232.0" y="249.0" width="59.0" height="12.0" fill="#d7ccc8" stroke="#666" stroke-width="0.6" opacity="0.95"/>
    <rect x="368.0" y="249.0" width="59.0" height="12.0" fill="#cfe8fc" stroke="#666" stroke-width="0.6" opacity="0.95"/>
    <rect x="18.0" y="280.0" width="59.0" height="12.0" fill="#e8f5e9" stroke="#666" stroke-width="0.6" opacity="0.95"/>
    <rect x="96.0" y="313.0" width="59.0" height="12.0" fill="#fff3e0" stroke="#666" stroke-width="0.6" opacity="0.95"/>
    <rect x="18.0" y="344.0" width="59.0" height="12.0" fill="#f3e5f5" stroke="#666" stroke-width="0.6" opacity="0.95"/>
    <rect x="96.0" y="377.0" width="59.0" height="12.0" fill="#eceff1" stroke="#666" stroke-width="0.6" opacity="0.95"/>
    <rect x="232.0" y="377.0" width="59.0" height="12.0" fill="#d7ccc8" stroke="#666" stroke-width="0.6" opacity="0.95"/>
    <rect x="368.0" y="377.0" width="59.0" height="12.0" fill="#cfe8fc" stroke="#666" stroke-width="0.6" opacity="0.95"/>
    <rect x="18.0" y="409.0" width="59.0" height="12.0" fill="#e8f5e9" stroke="#666" stroke-width="0.6" opacity="0.95"/>
    <rect x="96.0" y="441.0" width="59.0" height="12.0" fill="#fff3e0" stroke="#666" stroke-width="0.6" opacity="0.95"/>
  </g>
</svg>