<?xml version="1.0" encoding="UTF-8"?>
<svg xmlns="http://www.w3.org/2000/svg" width="512" height="355" viewBox="0 0 512 355">
  <rect x="0" y="0" width="100%" height="100%" fill="#f4f4f4"/>
  <text x="10" y="22" font-family="system-ui,sans-serif" font-size="13" font-weight="bold">계정검색현황</text>
  <text x="10" y="38" font-family="system-ui,sans-serif" font-size="10" fill="#444">Seek06 | Seek60 | TSeek60</text>
  <g transform="translate(10 36)">
    <rect x="0" y="0" width="492.0" height="303.0" fill="#fff" stroke="#333" stroke-width="1"/>
    <rect x="8.0" y="8.0" width="477.0" height="49.0" fill="#cfe8fc" stroke="#666" stroke-width="0.6" opacity="0.95"/>
    <text x="11.0" y="19.0" font-family="system-ui,sans-serif" font-size="9" fill="#222">TFlatPanel</text>
    <rect x="128.0" y="20.0" width="209.0" height="22.0" fill="#e8f5e9" stroke="#666" stroke-width="0.6" opacity="0.95"/>
    <text x="131.0" y="31.0" font-family="system-ui,sans-serif" font-size="9" fill="#222">TFlatEdit</text>
    <rect x="8.0" y="60.0" width="202.0" height="205.0" fill="#fff3e0" stroke="#666" stroke-width="0.6" opacity="0.95"/>
    <text x="11.0" y="71.0" font-family="system-ui,sans-serif" font-size="9" fill="#222">TFlatPanel</text>
    <rect x="9.0" y="61.0" width="40.0" height="203.0" fill="#f3e5f5" stroke="#666" stroke-width="0.6" opacity="0.95"/>
    <rect x="120.0" y="272.0" width="105.0" height="25.0" fill="#eceff1" stroke="#666" stroke-width="0.6" opacity="0.95"/>
    <text x="123.0" y="283.0" font-family="system-ui,sans-serif" font-size="9" fill="#222">선택</text>
    <rect x="264.0" y="272.0" width="105.0" height="25.0" fill="#d7ccc8" stroke="#666" stroke-width="0.6" opacity="0.95"/>
    <text x="267.0" y="283.0" font-family="system-ui,sans-serif" font-size="9" fill="#222">취소</text>
    <rect x="136.0" y="272.0" width="75.0" height="25.0" fill="#cfe8fc" stroke="#666" stroke-width="0.6" opacity="0.95"/>
    <text x="139.0" y="283.0" font-family="system-ui,sans-serif" font-size="9" fill="#222">선택</text>
    <rect x="280.0" y="272.0" width="75.0" height="25.0" fill="#e8f5e9" stroke="#666" stroke-width="0.6" opacity="0.95"/>
    <text x="283.0" y="283.0" font-family="system-ui,sans-serif" font-size="9" fill="#222">취소</text>
  </g>
</svg>