<?xml version="1.0" encoding="UTF-8"?>
<svg xmlns="http://www.w3.org/2000/svg" width="634" height="453" viewBox="0 0 634 453">
  <rect x="0" y="0" width="100%" height="100%" fill="#f4f4f4"/>
  <text x="10" y="22" font-family="system-ui,sans-serif" font-size="13" font-weight="bold">신간발행</text>
  <text x="10" y="38" font-family="system-ui,sans-serif" font-size="10" fill="#444">Seek07 | Seek70 | TSeek70</text>
  <g transform="translate(10 36)">
    <rect x="0" y="0" width="614.0" height="401.0" fill="#fff" stroke="#333" stroke-width="1"/>
    <rect x="8.0" y="8.0" width="601.0" height="65.0" fill="#cfe8fc" stroke="#666" stroke-width="0.6" opacity="0.95"/>
    <text x="11.0" y="19.0" font-family="system-ui,sans-serif" font-size="9" fill="#222">TFlatPanel</text>
    <rect x="104.0" y="44.0" width="353.0" height="22.0" fill="#e8f5e9" stroke="#666" stroke-width="0.6" opacity="0.95"/>
    <text x="107.0" y="55.0" font-family="system-ui,sans-serif" font-size="9" fill="#222">TFlatEdit</text>
    <rect x="496.0" y="24.0" width="97.0" height="33.0" fill="#fff3e0" stroke="#666" stroke-width="0.6" opacity="0.95"/>
    <text x="499.0" y="35.0" font-family="system-ui,sans-serif" font-size="9" fill="#222">불러오기</text>
    <text x="499.0" y="46.0" font-family="system-ui,sans-serif" font-size="7" fill="#666">TBitBtn</text>
    <rect x="8.0" y="76.0" width="40.0" height="285.0" fill="#f3e5f5" stroke="#666" stroke-width="0.6" opacity="0.95"/>
    <rect x="9.0" y="77.0" width="60.0" height="283.0" fill="#eceff1" stroke="#666" stroke-width="0.6" opacity="0.95"/>
    <text x="12.0" y="88.0" font-family="system-ui,sans-serif" font-size="9" fill="#222">TDBGrid</text>
    <rect x="176.0" y="368.0" width="105.0" height="25.0" fill="#d7ccc8" stroke="#666" stroke-width="0.6" opacity="0.95"/>
    <text x="179.0" y="379.0" font-family="system-ui,sans-serif" font-size="9" fill="#222">선택</text>
    <rect x="320.0" y="368.0" width="105.0" height="25.0" fill="#cfe8fc" stroke="#666" stroke-width="0.6" opacity="0.95"/>
    <text x="323.0" y="379.0" font-family="system-ui,sans-serif" font-size="9" fill="#222">취소</text>
    <rect x="336.0" y="368.0" width="75.0" height="25.0" fill="#e8f5e9" stroke="#666" stroke-width="0.6" opacity="0.95"/>
    <text x="339.0" y="379.0" font-family="system-ui,sans-serif" font-size="9" fill="#222">취소</text>
    <rect x="192.0" y="368.0" width="75.0" height="25.0" fill="#fff3e0" stroke="#666" stroke-width="0.6" opacity="0.95"/>
    <text x="195.0" y="379.0" font-family="system-ui,sans-serif" font-size="9" fill="#222">실행</text>
  </g>
</svg>