<?xml version="1.0" encoding="UTF-8"?>
<svg xmlns="http://www.w3.org/2000/svg" width="843" height="649" viewBox="0 0 843 649">
  <rect x="0" y="0" width="100%" height="100%" fill="#f4f4f4"/>
  <text x="10" y="22" font-family="system-ui,sans-serif" font-size="13" font-weight="bold">메세지(팝업창)</text>
  <text x="10" y="38" font-family="system-ui,sans-serif" font-size="10" fill="#444">Seok03 | Seok30 | TSeok30</text>
  <g transform="translate(10 36)">
    <rect x="0" y="0" width="823.0" height="597.0" fill="#fff" stroke="#333" stroke-width="1"/>
    <rect x="264.0" y="8.0" width="555.0" height="585.0" fill="#cfe8fc" stroke="#666" stroke-width="0.6" opacity="0.95"/>
    <text x="267.0" y="19.0" font-family="system-ui,sans-serif" font-size="9" fill="#222">TFlatPanel</text>
    <rect x="484.0" y="559.0" width="13.0" height="16.0" fill="#e8f5e9" stroke="#666" stroke-width="0.6" opacity="0.95"/>
    <rect x="264.0" y="8.0" width="129.0" height="505.0" fill="#fff3e0" stroke="#666" stroke-width="0.6" opacity="0.95"/>
    <text x="267.0" y="19.0" font-family="system-ui,sans-serif" font-size="9" fill="#222">TFlatPanel</text>
    <rect x="265.0" y="9.0" width="96.0" height="503.0" fill="#f3e5f5" stroke="#666" stroke-width="0.6" opacity="0.95"/>
    <text x="268.0" y="20.0" font-family="system-ui,sans-serif" font-size="9" fill="#222">TDBGrid</text>
    <rect x="392.0" y="40.0" width="427.0" height="473.0" fill="#eceff1" stroke="#666" stroke-width="0.6" opacity="0.95"/>
    <text x="395.0" y="51.0" font-family="system-ui,sans-serif" font-size="9" fill="#222">TFlatPanel</text>
    <rect x="393.0" y="232.0" width="423.0" height="168.0" fill="#d7ccc8" stroke="#666" stroke-width="0.6" opacity="0.95"/>
    <text x="396.0" y="243.0" font-family="system-ui,sans-serif" font-size="9" fill="#222">TRichEdit</text>
    <rect x="393.0" y="41.0" width="425.0" height="471.0" fill="#cfe8fc" stroke="#666" stroke-width="0.6" opacity="0.95"/>
    <text x="396.0" y="52.0" font-family="system-ui,sans-serif" font-size="9" fill="#222">TRxRichEdit</text>
    <rect x="676.0" y="556.0" width="75.0" height="25.0" fill="#e8f5e9" stroke="#666" stroke-width="0.6" opacity="0.95"/>
    <text x="679.0" y="567.0" font-family="system-ui,sans-serif" font-size="9" fill="#222">초기화</text>
    <rect x="3.0" y="8.0" width="150.0" height="585.0" fill="#fff3e0" stroke="#666" stroke-width="0.6" opacity="0.95"/>
    <text x="6.0" y="19.0" font-family="system-ui,sans-serif" font-size="9" fill="#222">TFlatPanel</text>
    <rect x="4.0" y="9.0" width="45.0" height="583.0" fill="#f3e5f5" stroke="#666" stroke-width="0.6" opacity="0.95"/>
    <text x="7.0" y="20.0" font-family="system-ui,sans-serif" font-size="9" fill="#222">TDBGrid</text>
    <rect x="608.0" y="523.0" width="105.0" height="25.0" fill="#eceff1" stroke="#666" stroke-width="0.6" opacity="0.95"/>
    <text x="611.0" y="534.0" font-family="system-ui,sans-serif" font-size="9" fill="#222">선택</text>
    <rect x="712.0" y="523.0" width="105.0" height="25.0" fill="#d7ccc8" stroke="#666" stroke-width="0.6" opacity="0.95"/>
    <text x="715.0" y="534.0" font-family="system-ui,sans-serif" font-size="9" fill="#222">취소</text>
    <rect x="624.0" y="523.0" width="75.0" height="25.0" fill="#cfe8fc" stroke="#666" stroke-width="0.6" opacity="0.95"/>
    <text x="627.0" y="534.0" font-family="system-ui,sans-serif" font-size="9" fill="#222">등록</text>
    <rect x="728.0" y="523.0" width="75.0" height="25.0" fill="#e8f5e9" stroke="#666" stroke-width="0.6" opacity="0.95"/>
    <text x="731.0" y="534.0" font-family="system-ui,sans-serif" font-size="9" fill="#222">삭제</text>
  </g>
</svg>