<?xml version="1.0" encoding="UTF-8"?>
<svg xmlns="http://www.w3.org/2000/svg" width="306" height="320" viewBox="0 0 306 320">
  <rect x="0" y="0" width="100%" height="100%" fill="#f4f4f4"/>
  <text x="10" y="22" font-family="system-ui,sans-serif" font-size="13" font-weight="bold">DownLoad.........</text>
  <text x="10" y="38" font-family="system-ui,sans-serif" font-size="10" fill="#444">Seok09 | Seok90 | TSeok90</text>
  <g transform="translate(10 36)">
    <rect x="0" y="0" width="286.0" height="268.0" fill="#fff" stroke="#333" stroke-width="1"/>
    <rect x="6.0" y="6.0" width="275.0" height="238.0" fill="#cfe8fc" stroke="#666" stroke-width="0.6" opacity="0.95"/>
    <text x="9.0" y="17.0" font-family="system-ui,sans-serif" font-size="9" fill="#222">TShape</text>
    <rect x="11.0" y="11.0" width="265.0" height="190.0" fill="#e8f5e9" stroke="#666" stroke-width="0.6" opacity="0.95"/>
    <text x="14.0" y="22.0" font-family="system-ui,sans-serif" font-size="9" fill="#222">TPanel</text>
    <rect x="20.0" y="151.0" width="44.0" height="12.0" fill="#fff3e0" stroke="#666" stroke-width="0.6" opacity="0.95"/>
    <rect x="20.0" y="167.0" width="248.0" height="12.0" fill="#f3e5f5" stroke="#666" stroke-width="0.6" opacity="0.95"/>
    <rect x="132.0" y="136.0" width="44.0" height="12.0" fill="#eceff1" stroke="#666" stroke-width="0.6" opacity="0.95"/>
    <rect x="20.0" y="136.0" width="44.0" height="12.0" fill="#d7ccc8" stroke="#666" stroke-width="0.6" opacity="0.95"/>
    <rect x="68.0" y="136.0" width="18.0" height="12.0" fill="#cfe8fc" stroke="#666" stroke-width="0.6" opacity="0.95"/>
    <rect x="180.0" y="136.0" width="18.0" height="12.0" fill="#e8f5e9" stroke="#666" stroke-width="0.6" opacity="0.95"/>
    <rect x="147.0" y="19.0" width="121.0" height="113.0" fill="#fff3e0" stroke="#666" stroke-width="0.6" opacity="0.95"/>
    <text x="150.0" y="30.0" font-family="system-ui,sans-serif" font-size="9" fill="#222">TFileListBox</text>
    <rect x="13.0" y="183.0" width="261.0" height="16.0" fill="#f3e5f5" stroke="#666" stroke-width="0.6" opacity="0.95"/>
    <text x="16.0" y="194.0" font-family="system-ui,sans-serif" font-size="9" fill="#222">TProgressBar</text>
    <rect x="18.0" y="18.0" width="250.0" height="114.0" fill="#eceff1" stroke="#666" stroke-width="0.6" opacity="0.95"/>
    <text x="21.0" y="29.0" font-family="system-ui,sans-serif" font-size="9" fill="#222">TCheckListBox</text>
    <rect x="11.0" y="205.0" width="265.0" height="33.0" fill="#d7ccc8" stroke="#666" stroke-width="0.6" opacity="0.95"/>
    <text x="14.0" y="216.0" font-family="system-ui,sans-serif" font-size="9" fill="#222">TPanel</text>
    <rect x="0.0" y="248.0" width="286.0" height="20.0" fill="#cfe8fc" stroke="#666" stroke-width="0.6" opacity="0.95"/>
    <text x="3.0" y="259.0" font-family="system-ui,sans-serif" font-size="9" fill="#222">TPanel</text>
  </g>
</svg>