<?xml version="1.0" encoding="UTF-8"?>
<svg xmlns="http://www.w3.org/2000/svg" width="921" height="585" viewBox="0 0 921 585">
  <rect x="0" y="0" width="100%" height="100%" fill="#f4f4f4"/>
  <text x="10" y="22" font-family="system-ui,sans-serif" font-size="13" font-weight="bold">입금내역</text>
  <text x="10" y="38" font-family="system-ui,sans-serif" font-size="10" fill="#444">Subu41 | Sobo41 | TSobo41</text>
  <g transform="translate(10 36)">
    <rect x="0" y="0" width="901.0" height="533.0" fill="#fff" stroke="#333" stroke-width="1"/>
    <rect x="4.0" y="52.0" width="21.0" height="447.0" fill="#cfe8fc" stroke="#666" stroke-width="0.6" opacity="0.95"/>
    <rect x="9.0" y="12.0" width="13.0" height="26.0" fill="#e8f5e9" stroke="#666" stroke-width="0.6" opacity="0.95"/>
    <rect x="9.0" y="224.0" width="13.0" height="52.0" fill="#fff3e0" stroke="#666" stroke-width="0.6" opacity="0.95"/>
    <rect x="10.0" y="505.0" width="12.0" height="24.0" fill="#f3e5f5" stroke="#666" stroke-width="0.6" opacity="0.95"/>
    <rect x="24.0" y="4.0" width="873.0" height="46.0" fill="#eceff1" stroke="#666" stroke-width="0.6" opacity="0.95"/>
    <text x="27.0" y="15.0" font-family="system-ui,sans-serif" font-size="9" fill="#222">TFlatPanel</text>
    <rect x="244.0" y="19.0" width="13.0" height="16.0" fill="#d7ccc8" stroke="#666" stroke-width="0.6" opacity="0.95"/>
    <rect x="480.0" y="16.0" width="169.0" height="22.0" fill="#cfe8fc" stroke="#666" stroke-width="0.6" opacity="0.95"/>
    <text x="483.0" y="27.0" font-family="system-ui,sans-serif" font-size="9" fill="#222">TFlatEdit</text>
    <rect x="24.0" y="169.0" width="70.0" height="330.0" fill="#e8f5e9" stroke="#666" stroke-width="0.6" opacity="0.95"/>
    <text x="27.0" y="180.0" font-family="system-ui,sans-serif" font-size="9" fill="#222">TFlatPanel</text>
    <rect x="25.0" y="170.0" width="78.0" height="328.0" fill="#fff3e0" stroke="#666" stroke-width="0.6" opacity="0.95"/>
    <text x="28.0" y="181.0" font-family="system-ui,sans-serif" font-size="9" fill="#222">TDBGridEh</text>
    <rect x="24.0" y="502.0" width="873.0" height="29.0" fill="#f3e5f5" stroke="#666" stroke-width="0.6" opacity="0.95"/>
    <text x="27.0" y="513.0" font-family="system-ui,sans-serif" font-size="9" fill="#222">TFlatPanel</text>
    <rect x="488.0" y="507.0" width="399.0" height="19.0" fill="#eceff1" stroke="#666" stroke-width="0.6" opacity="0.95"/>
    <text x="491.0" y="518.0" font-family="system-ui,sans-serif" font-size="9" fill="#222">TFlatProgressBar</text>
    <rect x="488.0" y="507.0" width="393.0" height="18.0" fill="#d7ccc8" stroke="#666" stroke-width="0.6" opacity="0.95"/>
    <text x="491.0" y="518.0" font-family="system-ui,sans-serif" font-size="9" fill="#222">TProgressBar</text>
    <rect x="24.0" y="53.0" width="873.0" height="116.0" fill="#cfe8fc" stroke="#666" stroke-width="0.6" opacity="0.95"/>
    <text x="27.0" y="64.0" font-family="system-ui,sans-serif" font-size="9" fill="#222">TFlatPanel</text>
    <rect x="560.0" y="65.0" width="185.0" height="22.0" fill="#e8f5e9" stroke="#666" stroke-width="0.6" opacity="0.95"/>
    <text x="563.0" y="76.0" font-family="system-ui,sans-serif" font-size="9" fill="#222">TFlatEdit</text>
    <rect x="560.0" y="97.0" width="281.0" height="22.0" fill="#fff3e0" stroke="#666" stroke-width="0.6" opacity="0.95"/>
    <text x="563.0" y="108.0" font-family="system-ui,sans-serif" font-size="9" fill="#222">TFlatEdit</text>
    <rect x="272.0" y="133.0" width="65.0" height="25.0" fill="#f3e5f5" stroke="#666" stroke-width="0.6" opacity="0.95"/>
    <text x="275.0" y="144.0" font-family="system-ui,sans-serif" font-size="9" fill="#222">추가</text>
    <rect x="360.0" y="133.0" width="65.0" height="25.0" fill="#eceff1" stroke="#666" stroke-width="0.6" opacity="0.95"/>
    <text x="363.0" y="144.0" font-family="system-ui,sans-serif" font-size="9" fill="#222">수정</text>
    <rect x="448.0" y="133.0" width="65.0" height="25.0" fill="#d7ccc8" stroke="#666" stroke-width="0.6" opacity="0.95"/>
    <text x="451.0" y="144.0" font-family="system-ui,sans-serif" font-size="9" fill="#222">삭제</text>
    <rect x="536.0" y="133.0" width="65.0" height="25.0" fill="#cfe8fc" stroke="#666" stroke-width="0.6" opacity="0.95"/>
    <text x="539.0" y="144.0" font-family="system-ui,sans-serif" font-size="9" fill="#222">저장</text>
    <rect x="624.0" y="133.0" width="65.0" height="25.0" fill="#e8f5e9" stroke="#666" stroke-width="0.6" opacity="0.95"/>
    <text x="627.0" y="144.0" font-family="system-ui,sans-serif" font-size="9" fill="#222">취소</text>
  </g>
</svg>