<?xml version="1.0" encoding="UTF-8"?>
<svg xmlns="http://www.w3.org/2000/svg" width="808" height="220" viewBox="0 0 808 220">
  <rect x="0" y="0" width="100%" height="100%" fill="#f4f4f4"/>
  <text x="10" y="22" font-family="system-ui,sans-serif" font-size="13" font-weight="bold">거래내역변경</text>
  <text x="10" y="38" font-family="system-ui,sans-serif" font-size="10" fill="#444">Subu20 | Sobo20 | TSobo20</text>
  <g transform="translate(10 36)">
    <rect x="0" y="0" width="788.0" height="168.0" fill="#fff" stroke="#333" stroke-width="1"/>
    <rect x="2.0" y="4.0" width="767.0" height="78.0" fill="#cfe8fc" stroke="#666" stroke-width="0.6" opacity="0.95"/>
    <text x="5.0" y="15.0" font-family="system-ui,sans-serif" font-size="9" fill="#222">TFlatPanel</text>
    <rect x="658.0" y="28.0" width="60.0" height="19.0" fill="#e8f5e9" stroke="#666" stroke-width="0.6" opacity="0.95"/>
    <text x="661.0" y="39.0" font-family="system-ui,sans-serif" font-size="9" fill="#222">지점명</text>
    <rect x="490.0" y="48.0" width="161.0" height="22.0" fill="#fff3e0" stroke="#666" stroke-width="0.6" opacity="0.95"/>
    <text x="493.0" y="59.0" font-family="system-ui,sans-serif" font-size="9" fill="#222">TFlatEdit</text>
    <rect x="490.0" y="16.0" width="161.0" height="22.0" fill="#f3e5f5" stroke="#666" stroke-width="0.6" opacity="0.95"/>
    <text x="493.0" y="27.0" font-family="system-ui,sans-serif" font-size="9" fill="#222">TFlatEdit</text>
    <rect x="264.0" y="96.0" width="105.0" height="25.0" fill="#eceff1" stroke="#666" stroke-width="0.6" opacity="0.95"/>
    <text x="267.0" y="107.0" font-family="system-ui,sans-serif" font-size="9" fill="#222">선택</text>
    <rect x="408.0" y="96.0" width="105.0" height="25.0" fill="#d7ccc8" stroke="#666" stroke-width="0.6" opacity="0.95"/>
    <text x="411.0" y="107.0" font-family="system-ui,sans-serif" font-size="9" fill="#222">취소</text>
    <rect x="280.0" y="96.0" width="75.0" height="25.0" fill="#cfe8fc" stroke="#666" stroke-width="0.6" opacity="0.95"/>
    <text x="283.0" y="107.0" font-family="system-ui,sans-serif" font-size="9" fill="#222">변경</text>
    <rect x="424.0" y="96.0" width="75.0" height="25.0" fill="#e8f5e9" stroke="#666" stroke-width="0.6" opacity="0.95"/>
    <text x="427.0" y="107.0" font-family="system-ui,sans-serif" font-size="9" fill="#222">취소</text>
  </g>
</svg>