<?xml version="1.0" encoding="UTF-8"?>
<svg xmlns="http://www.w3.org/2000/svg" width="984" height="658" viewBox="0 0 984 658">
  <rect x="0" y="0" width="100%" height="100%" fill="#f4f4f4"/>
  <text x="10" y="22" font-family="system-ui,sans-serif" font-size="13" font-weight="bold">출고 검증관리(개별)</text>
  <text x="10" y="38" font-family="system-ui,sans-serif" font-size="10" fill="#444">Subu59_3 | Sobo59_3 | TSobo59_3</text>
  <g transform="translate(10 36)">
    <rect x="0" y="0" width="964.0" height="606.0" fill="#fff" stroke="#333" stroke-width="1"/>
    <rect x="2.0" y="4.0" width="959.0" height="117.0" fill="#cfe8fc" stroke="#666" stroke-width="0.6" opacity="0.95"/>
    <text x="5.0" y="15.0" font-family="system-ui,sans-serif" font-size="9" fill="#222">TFlatPanel</text>
    <rect x="647.0" y="34.0" width="16.0" height="30.0" fill="#e8f5e9" stroke="#666" stroke-width="0.6" opacity="0.95"/>
    <rect x="695.0" y="35.0" width="32.0" height="30.0" fill="#fff3e0" stroke="#666" stroke-width="0.6" opacity="0.95"/>
    <rect x="39.0" y="35.0" width="237.0" height="27.0" fill="#f3e5f5" stroke="#666" stroke-width="0.6" opacity="0.95"/>
    <text x="42.0" y="46.0" font-family="system-ui,sans-serif" font-size="9" fill="#222">거래처/ISBN 체크:</text>
    <text x="42.0" y="57.0" font-family="system-ui,sans-serif" font-size="7" fill="#666">TmyLabel3d</text>
    <rect x="39.0" y="83.0" width="168.0" height="27.0" fill="#eceff1" stroke="#666" stroke-width="0.6" opacity="0.95"/>
    <text x="42.0" y="94.0" font-family="system-ui,sans-serif" font-size="9" fill="#222">위러브솔루션</text>
    <text x="42.0" y="105.0" font-family="system-ui,sans-serif" font-size="7" fill="#666">TmyLabel3d</text>
    <rect x="831.0" y="34.0" width="16.0" height="30.0" fill="#d7ccc8" stroke="#666" stroke-width="0.6" opacity="0.95"/>
    <rect x="919.0" y="34.0" width="16.0" height="30.0" fill="#cfe8fc" stroke="#666" stroke-width="0.6" opacity="0.95"/>
    <rect x="831.0" y="82.0" width="16.0" height="30.0" fill="#e8f5e9" stroke="#666" stroke-width="0.6" opacity="0.95"/>
    <rect x="919.0" y="82.0" width="16.0" height="30.0" fill="#fff3e0" stroke="#666" stroke-width="0.6" opacity="0.95"/>
    <rect x="772.0" y="83.0" width="17.0" height="27.0" fill="#f3e5f5" stroke="#666" stroke-width="0.6" opacity="0.95"/>
    <rect x="860.0" y="83.0" width="17.0" height="27.0" fill="#eceff1" stroke="#666" stroke-width="0.6" opacity="0.95"/>
    <rect x="749.0" y="70.0" width="16.0" height="45.0" fill="#d7ccc8" stroke="#666" stroke-width="0.6" opacity="0.95"/>
    <rect x="39.0" y="11.0" width="61.0" height="13.0" fill="#cfe8fc" stroke="#666" stroke-width="0.6" opacity="0.95"/>
    <text x="42.0" y="22.0" font-family="system-ui,sans-serif" font-size="9" fill="#222">작업장소:</text>
    <rect x="660.0" y="83.0" width="34.0" height="27.0" fill="#e8f5e9" stroke="#666" stroke-width="0.6" opacity="0.95"/>
    <rect x="693.0" y="81.0" width="32.0" height="30.0" fill="#fff3e0" stroke="#666" stroke-width="0.6" opacity="0.95"/>
    <rect x="207.0" y="83.0" width="37.0" height="27.0" fill="#f3e5f5" stroke="#666" stroke-width="0.6" opacity="0.95"/>
    <rect x="282.0" y="32.0" width="273.0" height="33.0" fill="#eceff1" stroke="#666" stroke-width="0.6" opacity="0.95"/>
    <text x="285.0" y="43.0" font-family="system-ui,sans-serif" font-size="9" fill="#222">TFlatEdit</text>
    <rect x="2.0" y="256.0" width="300.0" height="313.0" fill="#d7ccc8" stroke="#666" stroke-width="0.6" opacity="0.95"/>
    <text x="5.0" y="267.0" font-family="system-ui,sans-serif" font-size="9" fill="#222">TFlatPanel</text>
    <rect x="3.0" y="257.0" width="78.0" height="311.0" fill="#cfe8fc" stroke="#666" stroke-width="0.6" opacity="0.95"/>
    <text x="6.0" y="268.0" font-family="system-ui,sans-serif" font-size="9" fill="#222">TDBGridEh</text>
    <rect x="2.0" y="574.0" width="959.0" height="29.0" fill="#e8f5e9" stroke="#666" stroke-width="0.6" opacity="0.95"/>
    <text x="5.0" y="585.0" font-family="system-ui,sans-serif" font-size="9" fill="#222">TFlatPanel</text>
    <rect x="426.0" y="579.0" width="525.0" height="19.0" fill="#fff3e0" stroke="#666" stroke-width="0.6" opacity="0.95"/>
    <text x="429.0" y="590.0" font-family="system-ui,sans-serif" font-size="9" fill="#222">TFlatProgressBar</text>
    <rect x="426.0" y="579.0" width="521.0" height="18.0" fill="#f3e5f5" stroke="#666" stroke-width="0.6" opacity="0.95"/>
    <text x="429.0" y="590.0" font-family="system-ui,sans-serif" font-size="9" fill="#222">TProgressBar</text>
    <rect x="2.0" y="128.0" width="959.0" height="121.0" fill="#eceff1" stroke="#666" stroke-width="0.6" opacity="0.95"/>
    <text x="5.0" y="139.0" font-family="system-ui,sans-serif" font-size="9" fill="#222">TFlatPanel</text>
    <rect x="159.0" y="151.0" width="156.0" height="27.0" fill="#d7ccc8" stroke="#666" stroke-width="0.6" opacity="0.95"/>
    <text x="162.0" y="162.0" font-family="system-ui,sans-serif" font-size="9" fill="#222">2000.01.01</text>
    <text x="162.0" y="173.0" font-family="system-ui,sans-serif" font-size="7" fill="#666">TmyLabel3d</text>
    <rect x="471.0" y="151.0" width="168.0" height="27.0" fill="#cfe8fc" stroke="#666" stroke-width="0.6" opacity="0.95"/>
    <text x="474.0" y="162.0" font-family="system-ui,sans-serif" font-size="9" fill="#222">위러브솔루션</text>
    <text x="474.0" y="173.0" font-family="system-ui,sans-serif" font-size="7" fill="#666">TmyLabel3d</text>
    <rect x="471.0" y="191.0" width="168.0" height="27.0" fill="#e8f5e9" stroke="#666" stroke-width="0.6" opacity="0.95"/>
    <text x="474.0" y="202.0" font-family="system-ui,sans-serif" font-size="9" fill="#222">위러브솔루션</text>
    <text x="474.0" y="213.0" font-family="system-ui,sans-serif" font-size="7" fill="#666">TmyLabel3d</text>
    <rect x="763.0" y="220.0" width="53.0" height="12.0" fill="#fff3e0" stroke="#666" stroke-width="0.6" opacity="0.95"/>
    <rect x="18.0" y="152.0" width="137.0" height="29.0" fill="#f3e5f5" stroke="#666" stroke-width="0.6" opacity="0.95"/>
    <text x="21.0" y="163.0" font-family="system-ui,sans-serif" font-size="9" fill="#222">거래일자:</text>
    <text x="21.0" y="174.0" font-family="system-ui,sans-serif" font-size="7" fill="#666">TFlatPanel</text>
    <rect x="330.0" y="152.0" width="137.0" height="29.0" fill="#eceff1" stroke="#666" stroke-width="0.6" opacity="0.95"/>
    <text x="333.0" y="163.0" font-family="system-ui,sans-serif" font-size="9" fill="#222">출판사명:</text>
    <text x="333.0" y="174.0" font-family="system-ui,sans-serif" font-size="7" fill="#666">TFlatPanel</text>
    <rect x="330.0" y="192.0" width="137.0" height="29.0" fill="#d7ccc8" stroke="#666" stroke-width="0.6" opacity="0.95"/>
    <text x="333.0" y="203.0" font-family="system-ui,sans-serif" font-size="9" fill="#222">거래처명:</text>
    <text x="333.0" y="214.0" font-family="system-ui,sans-serif" font-size="7" fill="#666">TFlatPanel</text>
  </g>
</svg>