<?xml version="1.0" encoding="UTF-8"?>
<svg xmlns="http://www.w3.org/2000/svg" width="921" height="585" viewBox="0 0 921 585">
  <rect x="0" y="0" width="100%" height="100%" fill="#f4f4f4"/>
  <text x="10" y="22" font-family="system-ui,sans-serif" font-size="13" font-weight="bold">가입고 요청서</text>
  <text x="10" y="38" font-family="system-ui,sans-serif" font-size="10" fill="#444">Subu22_1 | Sobo22_1 | TSobo22_1</text>
  <g transform="translate(10 36)">
    <rect x="0" y="0" width="901.0" height="533.0" fill="#fff" stroke="#333" stroke-width="1"/>
    <rect x="2.0" y="4.0" width="895.0" height="78.0" fill="#cfe8fc" stroke="#666" stroke-width="0.6" opacity="0.95"/>
    <text x="5.0" y="15.0" font-family="system-ui,sans-serif" font-size="9" fill="#222">TFlatPanel</text>
    <rect x="712.0" y="68.0" width="26.0" height="12.0" fill="#e8f5e9" stroke="#666" stroke-width="0.6" opacity="0.95"/>
    <rect x="666.0" y="31.0" width="51.0" height="16.0" fill="#fff3e0" stroke="#666" stroke-width="0.6" opacity="0.95"/>
    <text x="669.0" y="42.0" font-family="system-ui,sans-serif" font-size="9" fill="#222">지점명</text>
    <rect x="346.0" y="56.0" width="273.0" height="22.0" fill="#f3e5f5" stroke="#666" stroke-width="0.6" opacity="0.95"/>
    <text x="349.0" y="67.0" font-family="system-ui,sans-serif" font-size="9" fill="#222">TFlatEdit</text>
    <rect x="2.0" y="85.0" width="80.0" height="414.0" fill="#eceff1" stroke="#666" stroke-width="0.6" opacity="0.95"/>
    <text x="5.0" y="96.0" font-family="system-ui,sans-serif" font-size="9" fill="#222">TFlatPanel</text>
    <rect x="3.0" y="86.0" width="180.0" height="376.0" fill="#d7ccc8" stroke="#666" stroke-width="0.6" opacity="0.95"/>
    <text x="6.0" y="97.0" font-family="system-ui,sans-serif" font-size="9" fill="#222">TDBGridEh</text>
    <rect x="1.0" y="377.0" width="92.0" height="18.0" fill="#cfe8fc" stroke="#666" stroke-width="0.6" opacity="0.95"/>
    <text x="4.0" y="388.0" font-family="system-ui,sans-serif" font-size="9" fill="#222">요청시간</text>
    <rect x="1.0" y="395.0" width="92.0" height="18.0" fill="#e8f5e9" stroke="#666" stroke-width="0.6" opacity="0.95"/>
    <text x="4.0" y="406.0" font-family="system-ui,sans-serif" font-size="9" fill="#222">수락시간</text>
    <rect x="2.0" y="502.0" width="895.0" height="29.0" fill="#fff3e0" stroke="#666" stroke-width="0.6" opacity="0.95"/>
    <text x="5.0" y="513.0" font-family="system-ui,sans-serif" font-size="9" fill="#222">TFlatPanel</text>
    <rect x="554.0" y="507.0" width="336.0" height="19.0" fill="#f3e5f5" stroke="#666" stroke-width="0.6" opacity="0.95"/>
    <text x="557.0" y="518.0" font-family="system-ui,sans-serif" font-size="9" fill="#222">TFlatProgressBar</text>
    <rect x="554.0" y="507.0" width="335.0" height="18.0" fill="#eceff1" stroke="#666" stroke-width="0.6" opacity="0.95"/>
    <text x="557.0" y="518.0" font-family="system-ui,sans-serif" font-size="9" fill="#222">TProgressBar</text>
    <rect x="304.0" y="364.0" width="305.0" height="101.0" fill="#d7ccc8" stroke="#666" stroke-width="0.6" opacity="0.95"/>
    <text x="307.0" y="375.0" font-family="system-ui,sans-serif" font-size="9" fill="#222">TFlatPanel</text>
  </g>
</svg>