<?xml version="1.0" encoding="UTF-8"?>
<svg xmlns="http://www.w3.org/2000/svg" width="326" height="202" viewBox="0 0 326 202">
  <rect x="0" y="0" width="100%" height="100%" fill="#f4f4f4"/>
  <text x="10" y="22" font-family="system-ui,sans-serif" font-size="13" font-weight="bold">Sobo19</text>
  <text x="10" y="38" font-family="system-ui,sans-serif" font-size="10" fill="#444">Subu19 | Sobo19 | TSobo19</text>
  <g transform="translate(10 36)">
    <rect x="0" y="0" width="306.0" height="150.0" fill="#fff" stroke="#333" stroke-width="1"/>
    <rect x="0.0" y="0.0" width="306.0" height="137.0" fill="#cfe8fc" stroke="#666" stroke-width="0.6" opacity="0.95"/>
    <text x="3.0" y="11.0" font-family="system-ui,sans-serif" font-size="9" fill="#222">TFlatPanel</text>
    <rect x="104.0" y="24.0" width="104.0" height="21.0" fill="#e8f5e9" stroke="#666" stroke-width="0.6" opacity="0.95"/>
    <text x="107.0" y="35.0" font-family="system-ui,sans-serif" font-size="9" fill="#222">검색 조건</text>
    <rect x="16.0" y="45.0" width="96.0" height="21.0" fill="#fff3e0" stroke="#666" stroke-width="0.6" opacity="0.95"/>
    <text x="19.0" y="56.0" font-family="system-ui,sans-serif" font-size="9" fill="#222">출판사명:</text>
    <rect x="16.0" y="68.0" width="129.0" height="23.0" fill="#f3e5f5" stroke="#666" stroke-width="0.6" opacity="0.95"/>
    <text x="19.0" y="79.0" font-family="system-ui,sans-serif" font-size="9" fill="#222">TFlatComboBox</text>
    <rect x="72.0" y="96.0" width="73.0" height="25.0" fill="#eceff1" stroke="#666" stroke-width="0.6" opacity="0.95"/>
    <text x="75.0" y="107.0" font-family="system-ui,sans-serif" font-size="9" fill="#222">검색</text>
    <rect x="168.0" y="96.0" width="73.0" height="25.0" fill="#d7ccc8" stroke="#666" stroke-width="0.6" opacity="0.95"/>
    <text x="171.0" y="107.0" font-family="system-ui,sans-serif" font-size="9" fill="#222">취소</text>
    <rect x="16.0" y="68.0" width="129.0" height="23.0" fill="#cfe8fc" stroke="#666" stroke-width="0.6" opacity="0.95"/>
    <text x="19.0" y="79.0" font-family="system-ui,sans-serif" font-size="9" fill="#222">TFlatComboBox</text>
    <rect x="112.0" y="44.0" width="177.0" height="22.0" fill="#e8f5e9" stroke="#666" stroke-width="0.6" opacity="0.95"/>
    <text x="115.0" y="55.0" font-family="system-ui,sans-serif" font-size="9" fill="#222">TFlatEdit</text>
  </g>
</svg>