<?xml version="1.0" encoding="UTF-8"?>
<svg xmlns="http://www.w3.org/2000/svg" width="921" height="585" viewBox="0 0 921 585">
  <rect x="0" y="0" width="100%" height="100%" fill="#f4f4f4"/>
  <text x="10" y="22" font-family="system-ui,sans-serif" font-size="13" font-weight="bold">종당관리</text>
  <text x="10" y="38" font-family="system-ui,sans-serif" font-size="10" fill="#444">Subu18 | Sobo18 | TSobo18</text>
  <g transform="translate(10 36)">
    <rect x="0" y="0" width="901.0" height="533.0" fill="#fff" stroke="#333" stroke-width="1"/>
    <rect x="4.0" y="52.0" width="21.0" height="447.0" fill="#cfe8fc" stroke="#666" stroke-width="0.6" opacity="0.95"/>
    <rect x="9.0" y="12.0" width="13.0" height="26.0" fill="#e8f5e9" stroke="#666" stroke-width="0.6" opacity="0.95"/>
    <rect x="9.0" y="224.0" width="13.0" height="52.0" fill="#fff3e0" stroke="#666" stroke-width="0.6" opacity="0.95"/>
    <rect x="10.0" y="505.0" width="12.0" height="24.0" fill="#f3e5f5" stroke="#666" stroke-width="0.6" opacity="0.95"/>
    <rect x="24.0" y="4.0" width="873.0" height="45.0" fill="#eceff1" stroke="#666" stroke-width="0.6" opacity="0.95"/>
    <text x="27.0" y="15.0" font-family="system-ui,sans-serif" font-size="9" fill="#222">TFlatPanel</text>
    <rect x="352.0" y="19.0" width="60.0" height="21.0" fill="#d7ccc8" stroke="#666" stroke-width="0.6" opacity="0.95"/>
    <text x="355.0" y="30.0" font-family="system-ui,sans-serif" font-size="9" fill="#222">_____</text>
    <rect x="424.0" y="16.0" width="201.0" height="23.0" fill="#cfe8fc" stroke="#666" stroke-width="0.6" opacity="0.95"/>
    <text x="427.0" y="27.0" font-family="system-ui,sans-serif" font-size="9" fill="#222">TFlatComboBox</text>
    <rect x="128.0" y="16.0" width="201.0" height="22.0" fill="#e8f5e9" stroke="#666" stroke-width="0.6" opacity="0.95"/>
    <text x="131.0" y="27.0" font-family="system-ui,sans-serif" font-size="9" fill="#222">TFlatEdit</text>
    <rect x="24.0" y="53.0" width="474.0" height="446.0" fill="#fff3e0" stroke="#666" stroke-width="0.6" opacity="0.95"/>
    <text x="27.0" y="64.0" font-family="system-ui,sans-serif" font-size="9" fill="#222">TFlatPanel</text>
    <rect x="25.0" y="54.0" width="70.0" height="444.0" fill="#f3e5f5" stroke="#666" stroke-width="0.6" opacity="0.95"/>
    <text x="28.0" y="65.0" font-family="system-ui,sans-serif" font-size="9" fill="#222">TDBGridEh</text>
    <rect x="784.0" y="53.0" width="113.0" height="204.0" fill="#eceff1" stroke="#666" stroke-width="0.6" opacity="0.95"/>
    <text x="787.0" y="64.0" font-family="system-ui,sans-serif" font-size="9" fill="#222">TFlatPanel</text>
    <rect x="784.0" y="261.0" width="113.0" height="81.0" fill="#d7ccc8" stroke="#666" stroke-width="0.6" opacity="0.95"/>
    <text x="787.0" y="272.0" font-family="system-ui,sans-serif" font-size="9" fill="#222">TFlatPanel</text>
    <rect x="784.0" y="450.0" width="113.0" height="49.0" fill="#cfe8fc" stroke="#666" stroke-width="0.6" opacity="0.95"/>
    <text x="787.0" y="461.0" font-family="system-ui,sans-serif" font-size="9" fill="#222">저장</text>
    <text x="787.0" y="472.0" font-family="system-ui,sans-serif" font-size="7" fill="#666">TFlatButton</text>
    <rect x="24.0" y="502.0" width="873.0" height="29.0" fill="#e8f5e9" stroke="#666" stroke-width="0.6" opacity="0.95"/>
    <text x="27.0" y="513.0" font-family="system-ui,sans-serif" font-size="9" fill="#222">TFlatPanel</text>
    <rect x="552.0" y="507.0" width="336.0" height="19.0" fill="#fff3e0" stroke="#666" stroke-width="0.6" opacity="0.95"/>
    <text x="555.0" y="518.0" font-family="system-ui,sans-serif" font-size="9" fill="#222">TFlatProgressBar</text>
    <rect x="552.0" y="507.0" width="335.0" height="18.0" fill="#f3e5f5" stroke="#666" stroke-width="0.6" opacity="0.95"/>
    <text x="555.0" y="518.0" font-family="system-ui,sans-serif" font-size="9" fill="#222">TProgressBar</text>
  </g>
</svg>