<?xml version="1.0" encoding="UTF-8"?>
<svg xmlns="http://www.w3.org/2000/svg" width="984" height="658" viewBox="0 0 984 658">
  <rect x="0" y="0" width="100%" height="100%" fill="#f4f4f4"/>
  <text x="10" y="22" font-family="system-ui,sans-serif" font-size="13" font-weight="bold">출고택배관리</text>
  <text x="10" y="38" font-family="system-ui,sans-serif" font-size="10" fill="#444">Subu28 | Sobo28 | TSobo28</text>
  <g transform="translate(10 36)">
    <rect x="0" y="0" width="964.0" height="606.0" fill="#fff" stroke="#333" stroke-width="1"/>
    <rect x="2.0" y="4.0" width="959.0" height="45.0" fill="#cfe8fc" stroke="#666" stroke-width="0.6" opacity="0.95"/>
    <text x="5.0" y="15.0" font-family="system-ui,sans-serif" font-size="9" fill="#222">TFlatPanel</text>
    <rect x="558.0" y="19.0" width="12.0" height="15.0" fill="#e8f5e9" stroke="#666" stroke-width="0.6" opacity="0.95"/>
    <rect x="338.0" y="16.0" width="201.0" height="22.0" fill="#fff3e0" stroke="#666" stroke-width="0.6" opacity="0.95"/>
    <text x="341.0" y="27.0" font-family="system-ui,sans-serif" font-size="9" fill="#222">TFlatEdit</text>
    <rect x="570.0" y="16.0" width="201.0" height="22.0" fill="#f3e5f5" stroke="#666" stroke-width="0.6" opacity="0.95"/>
    <text x="573.0" y="27.0" font-family="system-ui,sans-serif" font-size="9" fill="#222">TFlatEdit</text>
    <rect x="2.0" y="53.0" width="180.0" height="439.0" fill="#eceff1" stroke="#666" stroke-width="0.6" opacity="0.95"/>
    <text x="5.0" y="64.0" font-family="system-ui,sans-serif" font-size="9" fill="#222">TFlatPanel</text>
    <rect x="3.0" y="54.0" width="50.0" height="419.0" fill="#d7ccc8" stroke="#666" stroke-width="0.6" opacity="0.95"/>
    <text x="6.0" y="65.0" font-family="system-ui,sans-serif" font-size="9" fill="#222">TDBGridEh</text>
    <rect x="1.0" y="420.0" width="850.0" height="18.0" fill="#cfe8fc" stroke="#666" stroke-width="0.6" opacity="0.95"/>
    <text x="4.0" y="431.0" font-family="system-ui,sans-serif" font-size="9" fill="#222">TStatusBar</text>
    <rect x="2.0" y="574.0" width="959.0" height="29.0" fill="#e8f5e9" stroke="#666" stroke-width="0.6" opacity="0.95"/>
    <text x="5.0" y="585.0" font-family="system-ui,sans-serif" font-size="9" fill="#222">TFlatPanel</text>
    <rect x="538.0" y="579.0" width="336.0" height="19.0" fill="#fff3e0" stroke="#666" stroke-width="0.6" opacity="0.95"/>
    <text x="541.0" y="590.0" font-family="system-ui,sans-serif" font-size="9" fill="#222">TFlatProgressBar</text>
    <rect x="538.0" y="579.0" width="335.0" height="18.0" fill="#f3e5f5" stroke="#666" stroke-width="0.6" opacity="0.95"/>
    <text x="541.0" y="590.0" font-family="system-ui,sans-serif" font-size="9" fill="#222">TProgressBar</text>
    <rect x="877.0" y="53.0" width="84.0" height="156.0" fill="#eceff1" stroke="#666" stroke-width="0.6" opacity="0.95"/>
    <text x="880.0" y="64.0" font-family="system-ui,sans-serif" font-size="9" fill="#222">TFlatPanel</text>
    <rect x="877.0" y="373.0" width="84.0" height="197.0" fill="#d7ccc8" stroke="#666" stroke-width="0.6" opacity="0.95"/>
    <text x="880.0" y="384.0" font-family="system-ui,sans-serif" font-size="9" fill="#222">TFlatPanel</text>
    <rect x="877.0" y="213.0" width="84.0" height="156.0" fill="#cfe8fc" stroke="#666" stroke-width="0.6" opacity="0.95"/>
    <text x="880.0" y="224.0" font-family="system-ui,sans-serif" font-size="9" fill="#222">TFlatPanel</text>
    <rect x="2.0" y="496.0" width="871.0" height="74.0" fill="#e8f5e9" stroke="#666" stroke-width="0.6" opacity="0.95"/>
    <text x="5.0" y="507.0" font-family="system-ui,sans-serif" font-size="9" fill="#222">TFlatPanel</text>
    <rect x="314.0" y="504.0" width="353.0" height="18.0" fill="#fff3e0" stroke="#666" stroke-width="0.6" opacity="0.95"/>
    <text x="317.0" y="515.0" font-family="system-ui,sans-serif" font-size="9" fill="#222">TFlatEdit</text>
    <rect x="314.0" y="524.0" width="353.0" height="18.0" fill="#f3e5f5" stroke="#666" stroke-width="0.6" opacity="0.95"/>
    <text x="317.0" y="535.0" font-family="system-ui,sans-serif" font-size="9" fill="#222">TFlatEdit</text>
    <rect x="218.0" y="504.0" width="90.0" height="57.0" fill="#eceff1" stroke="#666" stroke-width="0.6" opacity="0.95"/>
    <text x="221.0" y="515.0" font-family="system-ui,sans-serif" font-size="9" fill="#222">메모</text>
    <text x="221.0" y="526.0" font-family="system-ui,sans-serif" font-size="7" fill="#666">TFlatPanel</text>
    <rect x="338.0" y="547.0" width="69.0" height="13.0" fill="#d7ccc8" stroke="#666" stroke-width="0.6" opacity="0.95"/>
    <text x="341.0" y="558.0" font-family="system-ui,sans-serif" font-size="9" fill="#222">핸드폰번호</text>
    <rect x="462.0" y="547.0" width="53.0" height="13.0" fill="#cfe8fc" stroke="#666" stroke-width="0.6" opacity="0.95"/>
    <text x="465.0" y="558.0" font-family="system-ui,sans-serif" font-size="9" fill="#222">전화번호</text>
    <rect x="582.0" y="547.0" width="56.0" height="13.0" fill="#e8f5e9" stroke="#666" stroke-width="0.6" opacity="0.95"/>
    <text x="585.0" y="558.0" font-family="system-ui,sans-serif" font-size="9" fill="#222">받는사람</text>
  </g>
</svg>