<?xml version="1.0" encoding="UTF-8"?>
<svg xmlns="http://www.w3.org/2000/svg" width="984" height="658" viewBox="0 0 984 658">
  <rect x="0" y="0" width="100%" height="100%" fill="#f4f4f4"/>
  <text x="10" y="22" font-family="system-ui,sans-serif" font-size="13" font-weight="bold">청구서출력</text>
  <text x="10" y="38" font-family="system-ui,sans-serif" font-size="10" fill="#444">Subu46 | Sobo46 | TSobo46</text>
  <g transform="translate(10 36)">
    <rect x="0" y="0" width="964.0" height="606.0" fill="#fff" stroke="#333" stroke-width="1"/>
    <rect x="-27.0" y="284.0" width="991.0" height="288.0" fill="#cfe8fc" stroke="#666" stroke-width="0.6" opacity="0.95"/>
    <text x="-24.0" y="295.0" font-family="system-ui,sans-serif" font-size="9" fill="#222">TFlatPanel</text>
    <rect x="885.0" y="348.0" width="73.0" height="30.0" fill="#e8f5e9" stroke="#666" stroke-width="0.6" opacity="0.95"/>
    <text x="888.0" y="359.0" font-family="system-ui,sans-serif" font-size="9" fill="#222">저장</text>
    <text x="888.0" y="370.0" font-family="system-ui,sans-serif" font-size="7" fill="#666">TFlatButton</text>
    <rect x="645.0" y="500.0" width="313.0" height="66.0" fill="#fff3e0" stroke="#666" stroke-width="0.6" opacity="0.95"/>
    <text x="648.0" y="511.0" font-family="system-ui,sans-serif" font-size="9" fill="#222">TFlatPanel</text>
    <rect x="-19.0" y="287.0" width="233.0" height="22.0" fill="#f3e5f5" stroke="#666" stroke-width="0.6" opacity="0.95"/>
    <text x="-16.0" y="298.0" font-family="system-ui,sans-serif" font-size="9" fill="#222">TFlatPanel</text>
    <rect x="32.0" y="290.0" width="133.0" height="16.0" fill="#eceff1" stroke="#666" stroke-width="0.6" opacity="0.95"/>
    <text x="35.0" y="301.0" font-family="system-ui,sans-serif" font-size="9" fill="#222">배 송 업 무 비</text>
    <rect x="-24.0" y="500.0" width="662.0" height="66.0" fill="#d7ccc8" stroke="#666" stroke-width="0.6" opacity="0.95"/>
    <text x="-21.0" y="511.0" font-family="system-ui,sans-serif" font-size="9" fill="#222">TFlatPanel</text>
    <rect x="47.0" y="507.0" width="335.0" height="21.0" fill="#cfe8fc" stroke="#666" stroke-width="0.6" opacity="0.95"/>
    <text x="50.0" y="518.0" font-family="system-ui,sans-serif" font-size="9" fill="#222">TFlatEdit</text>
    <rect x="47.0" y="539.0" width="335.0" height="21.0" fill="#e8f5e9" stroke="#666" stroke-width="0.6" opacity="0.95"/>
    <text x="50.0" y="550.0" font-family="system-ui,sans-serif" font-size="9" fill="#222">TFlatEdit</text>
    <rect x="229.0" y="287.0" width="233.0" height="22.0" fill="#fff3e0" stroke="#666" stroke-width="0.6" opacity="0.95"/>
    <text x="232.0" y="298.0" font-family="system-ui,sans-serif" font-size="9" fill="#222">TFlatPanel</text>
    <rect x="280.0" y="290.0" width="133.0" height="16.0" fill="#f3e5f5" stroke="#666" stroke-width="0.6" opacity="0.95"/>
    <text x="283.0" y="301.0" font-family="system-ui,sans-serif" font-size="9" fill="#222">물 류 관 리 비</text>
    <rect x="477.0" y="287.0" width="233.0" height="22.0" fill="#eceff1" stroke="#666" stroke-width="0.6" opacity="0.95"/>
    <text x="480.0" y="298.0" font-family="system-ui,sans-serif" font-size="9" fill="#222">TFlatPanel</text>
    <rect x="528.0" y="290.0" width="133.0" height="16.0" fill="#d7ccc8" stroke="#666" stroke-width="0.6" opacity="0.95"/>
    <text x="531.0" y="301.0" font-family="system-ui,sans-serif" font-size="9" fill="#222">반 품 관 리 비</text>
    <rect x="725.0" y="287.0" width="233.0" height="22.0" fill="#cfe8fc" stroke="#666" stroke-width="0.6" opacity="0.95"/>
    <text x="728.0" y="298.0" font-family="system-ui,sans-serif" font-size="9" fill="#222">TFlatPanel</text>
    <rect x="776.0" y="290.0" width="133.0" height="16.0" fill="#e8f5e9" stroke="#666" stroke-width="0.6" opacity="0.95"/>
    <text x="779.0" y="301.0" font-family="system-ui,sans-serif" font-size="9" fill="#222">기 타 관 리 비</text>
    <rect x="187.0" y="52.0" width="600.0" height="237.0" fill="#fff3e0" stroke="#666" stroke-width="0.6" opacity="0.95"/>
    <text x="190.0" y="63.0" font-family="system-ui,sans-serif" font-size="9" fill="#222">TFlatPanel</text>
    <rect x="188.0" y="270.0" width="42.0" height="18.0" fill="#f3e5f5" stroke="#666" stroke-width="0.6" opacity="0.95"/>
    <text x="191.0" y="281.0" font-family="system-ui,sans-serif" font-size="9" fill="#222">합계</text>
    <rect x="1.0" y="1.0" width="30.0" height="217.0" fill="#eceff1" stroke="#666" stroke-width="0.6" opacity="0.95"/>
    <rect x="2.0" y="4.0" width="959.0" height="45.0" fill="#d7ccc8" stroke="#666" stroke-width="0.6" opacity="0.95"/>
    <text x="5.0" y="15.0" font-family="system-ui,sans-serif" font-size="9" fill="#222">TFlatPanel</text>
    <rect x="566.0" y="19.0" width="12.0" height="15.0" fill="#cfe8fc" stroke="#666" stroke-width="0.6" opacity="0.95"/>
    <rect x="346.0" y="16.0" width="201.0" height="22.0" fill="#e8f5e9" stroke="#666" stroke-width="0.6" opacity="0.95"/>
    <text x="349.0" y="27.0" font-family="system-ui,sans-serif" font-size="9" fill="#222">TFlatEdit</text>
    <rect x="578.0" y="16.0" width="201.0" height="22.0" fill="#fff3e0" stroke="#666" stroke-width="0.6" opacity="0.95"/>
    <text x="581.0" y="27.0" font-family="system-ui,sans-serif" font-size="9" fill="#222">TFlatEdit</text>
    <rect x="2.0" y="574.0" width="962.0" height="29.0" fill="#f3e5f5" stroke="#666" stroke-width="0.6" opacity="0.95"/>
    <text x="5.0" y="585.0" font-family="system-ui,sans-serif" font-size="9" fill="#222">TFlatPanel</text>
    <rect x="426.0" y="579.0" width="426.0" height="19.0" fill="#eceff1" stroke="#666" stroke-width="0.6" opacity="0.95"/>
    <text x="429.0" y="590.0" font-family="system-ui,sans-serif" font-size="9" fill="#222">TFlatProgressBar</text>
    <rect x="426.0" y="579.0" width="425.0" height="18.0" fill="#d7ccc8" stroke="#666" stroke-width="0.6" opacity="0.95"/>
    <text x="429.0" y="590.0" font-family="system-ui,sans-serif" font-size="9" fill="#222">TProgressBar</text>
    <rect x="2.0" y="52.0" width="230.0" height="517.0" fill="#cfe8fc" stroke="#666" stroke-width="0.6" opacity="0.95"/>
    <text x="5.0" y="63.0" font-family="system-ui,sans-serif" font-size="9" fill="#222">TFlatPanel</text>
    <rect x="3.0" y="53.0" width="70.0" height="515.0" fill="#e8f5e9" stroke="#666" stroke-width="0.6" opacity="0.95"/>
    <text x="6.0" y="64.0" font-family="system-ui,sans-serif" font-size="9" fill="#222">TDBGridEh</text>
    <rect x="856.0" y="1.0" width="102.0" height="515.0" fill="#fff3e0" stroke="#666" stroke-width="0.6" opacity="0.95"/>
    <text x="859.0" y="12.0" font-family="system-ui,sans-serif" font-size="9" fill="#222">TFlatPanel</text>
    <rect x="888.0" y="121.0" width="41.0" height="81.0" fill="#f3e5f5" stroke="#666" stroke-width="0.6" opacity="0.95"/>
    <text x="891.0" y="132.0" font-family="system-ui,sans-serif" font-size="9" fill="#222">전체선택</text>
    <text x="891.0" y="143.0" font-family="system-ui,sans-serif" font-size="7" fill="#666">TFlatRadioButton</text>
    <rect x="888.0" y="217.0" width="41.0" height="81.0" fill="#eceff1" stroke="#666" stroke-width="0.6" opacity="0.95"/>
    <text x="891.0" y="228.0" font-family="system-ui,sans-serif" font-size="9" fill="#222">전체해제</text>
    <text x="891.0" y="239.0" font-family="system-ui,sans-serif" font-size="7" fill="#666">TFlatRadioButton</text>
  </g>
</svg>