<?xml version="1.0" encoding="UTF-8"?>
<svg xmlns="http://www.w3.org/2000/svg" width="453" height="409" viewBox="0 0 453 409">
  <rect x="0" y="0" width="100%" height="100%" fill="#f4f4f4"/>
  <text x="10" y="22" font-family="system-ui,sans-serif" font-size="13" font-weight="bold">특수문자</text>
  <text x="10" y="38" font-family="system-ui,sans-serif" font-size="10" fill="#444">Tong03 | Tong30 | TTong30</text>
  <g transform="translate(10 36)">
    <rect x="0" y="0" width="433.0" height="357.0" fill="#fff" stroke="#333" stroke-width="1"/>
    <rect x="8.0" y="8.0" width="321.0" height="265.0" fill="#cfe8fc" stroke="#666" stroke-width="0.6" opacity="0.95"/>
    <text x="11.0" y="19.0" font-family="system-ui,sans-serif" font-size="9" fill="#222">TFlatPanel</text>
    <rect x="19.0" y="22.0" width="300.0" height="237.0" fill="#e8f5e9" stroke="#666" stroke-width="0.6" opacity="0.95"/>
    <text x="22.0" y="33.0" font-family="system-ui,sans-serif" font-size="9" fill="#222">TStringGrid</text>
    <rect x="336.0" y="8.0" width="81.0" height="265.0" fill="#fff3e0" stroke="#666" stroke-width="0.6" opacity="0.95"/>
    <text x="339.0" y="19.0" font-family="system-ui,sans-serif" font-size="9" fill="#222">TFlatPanel</text>
    <rect x="345.0" y="15.0" width="62.0" height="26.0" fill="#f3e5f5" stroke="#666" stroke-width="0.6" opacity="0.95"/>
    <text x="348.0" y="26.0" font-family="system-ui,sans-serif" font-size="9" fill="#222">전각문자</text>
    <rect x="345.0" y="44.0" width="62.0" height="26.0" fill="#eceff1" stroke="#666" stroke-width="0.6" opacity="0.95"/>
    <text x="348.0" y="55.0" font-family="system-ui,sans-serif" font-size="9" fill="#222">도형문자</text>
    <rect x="345.0" y="73.0" width="62.0" height="26.0" fill="#d7ccc8" stroke="#666" stroke-width="0.6" opacity="0.95"/>
    <text x="348.0" y="84.0" font-family="system-ui,sans-serif" font-size="9" fill="#222">선/원문자</text>
    <rect x="345.0" y="102.0" width="62.0" height="26.0" fill="#cfe8fc" stroke="#666" stroke-width="0.6" opacity="0.95"/>
    <text x="348.0" y="113.0" font-family="system-ui,sans-serif" font-size="9" fill="#222">일본어</text>
    <rect x="345.0" y="131.0" width="62.0" height="26.0" fill="#e8f5e9" stroke="#666" stroke-width="0.6" opacity="0.95"/>
    <text x="348.0" y="142.0" font-family="system-ui,sans-serif" font-size="9" fill="#222">단위문자</text>
    <rect x="345.0" y="160.0" width="62.0" height="25.0" fill="#fff3e0" stroke="#666" stroke-width="0.6" opacity="0.95"/>
    <text x="348.0" y="171.0" font-family="system-ui,sans-serif" font-size="9" fill="#222">기타문자</text>
    <rect x="345.0" y="189.0" width="62.0" height="26.0" fill="#f3e5f5" stroke="#666" stroke-width="0.6" opacity="0.95"/>
    <text x="348.0" y="200.0" font-family="system-ui,sans-serif" font-size="9" fill="#222">한자</text>
    <rect x="8.0" y="280.0" width="409.0" height="41.0" fill="#eceff1" stroke="#666" stroke-width="0.6" opacity="0.95"/>
    <text x="11.0" y="291.0" font-family="system-ui,sans-serif" font-size="9" fill="#222">TFlatPanel</text>
    <rect x="24.0" y="291.0" width="81.0" height="16.0" fill="#d7ccc8" stroke="#666" stroke-width="0.6" opacity="0.95"/>
    <text x="27.0" y="302.0" font-family="system-ui,sans-serif" font-size="9" fill="#222">선택/복사:</text>
    <rect x="112.0" y="288.0" width="289.0" height="22.0" fill="#cfe8fc" stroke="#666" stroke-width="0.6" opacity="0.95"/>
    <text x="115.0" y="299.0" font-family="system-ui,sans-serif" font-size="9" fill="#222">TFlatEdit</text>
  </g>
</svg>